<?xml version="1.0" encoding="utf-8"?>
<!-- Generator: Adobe Illustrator 26.5.0, SVG Export Plug-In . SVG Version: 6.00 Build 0)  -->
<svg version="1.1" id="_图层_1" xmlns="http://www.w3.org/2000/svg" xmlns:xlink="http://www.w3.org/1999/xlink" x="0px" y="0px"
	 viewBox="0 0 548.5 608" style="enable-background:new 0 0 548.5 608;" xml:space="preserve">
<style type="text/css">
	.st0{fill:none;stroke:#231815;stroke-width:0.25;stroke-miterlimit:10;}
</style>
<circle class="st0" cx="133.5" cy="42.6" r="28.2"/>
<circle class="st0" cx="133.5" cy="42.6" r="42.5"/>
<path class="st0" d="M223.5,0.1c-23.5,0-42.5,19-42.5,42.5s19,42.5,42.5,42.5s42.5-19,42.5-42.5S247,0.1,223.5,0.1z M229.2,70.3
	c-0.2,0.1-0.5,0.1-0.7,0.1c-1.6,0.3-3.3,0.5-5,0.5s-3.4-0.2-5-0.5c-0.2,0-0.4-0.1-0.7-0.1c-12.9-2.7-22.5-14-22.5-27.6
	c0-15.6,12.6-28.2,28.2-28.2V4.7c18.2,0,33,14.8,33,33C256.5,54,244.7,67.6,229.2,70.3L229.2,70.3z"/>
<path class="st0" d="M315.3,0.1c-23.5,0-42.5,19-42.5,42.5s19,42.5,42.5,42.5s42.5-19,42.5-42.5S338.8,0.1,315.3,0.1z M321.1,70.3
	c-0.2,0.1-0.5,0.1-0.7,0.1c-1.6,0.3-3.3,0.5-5,0.5s-3.4-0.2-5-0.5c-0.2,0-0.5-0.1-0.7-0.1c-12.9-2.7-22.5-14-22.5-27.6
	c0-15.6,12.6-28.2,28.2-28.2V4.7c18.2,0,33,14.8,33,33C348.4,54,336.6,67.6,321.1,70.3L321.1,70.3z"/>
<circle class="st0" cx="42.6" cy="42.6" r="28.2"/>
<circle class="st0" cx="42.6" cy="42.6" r="42.5"/>
<circle class="st0" cx="335.8" cy="395.3" r="212.6"/>
<g>
	<circle class="st0" cx="370.8" cy="412" r="3.1"/>
	<circle class="st0" cx="370.8" cy="378.7" r="3.1"/>
</g>
</svg>
