<?xml version="1.0" encoding="UTF-8"?>
<svg id="_图层_1" data-name="图层 1" xmlns="http://www.w3.org/2000/svg" viewBox="0 0 357.98 85.29">
  <defs>
    <style>
      .cls-1 {
        fill: none;
        stroke: #231815;
        stroke-miterlimit: 10;
        stroke-width: .25px;
      }
    </style>
  </defs>
  <circle class="cls-1" cx="133.54" cy="42.64" r="28.2"/>
  <circle class="cls-1" cx="133.54" cy="42.64" r="42.52"/>
  <path class="cls-1" d="M229.47,70.39c-1.63,.31-3.31,.46-5.03,.46s-3.4-.15-5.03-.46c1.64,.25,3.32,.38,5.03,.38s3.39-.13,5.03-.38Z"/>
  <path class="cls-1" d="M224.44,70.77c-1.71,0-3.39-.13-5.03-.38,1.63,.31,3.31,.46,5.03,.46s3.4-.15,5.03-.46c-1.64,.25-3.32,.38-5.03,.38Z"/>
  <path class="cls-1" d="M257.46,37.74c0,16.29-11.78,29.81-27.29,32.52-.23,.05-.47,.08-.7,.12-1.64,.25-3.32,.38-5.03,.38s-3.39-.13-5.03-.38c-.22-.03-.45-.07-.67-.11-12.85-2.65-22.5-14.01-22.5-27.63,0-15.58,12.62-28.21,28.2-28.21V4.73c18.24,0,33.02,14.78,33.02,33.02Z"/>
  <path class="cls-1" d="M224.44,.12c-23.48,0-42.52,19.03-42.52,42.52s19.04,42.52,42.52,42.52,42.52-19.04,42.52-42.52S247.92,.12,224.44,.12Zm5.73,70.14c-.23,.05-.47,.08-.7,.12-1.63,.31-3.31,.46-5.03,.46s-3.4-.15-5.03-.46c-.22-.03-.45-.07-.67-.11-12.85-2.65-22.5-14.01-22.5-27.63,0-15.58,12.62-28.21,28.2-28.21V4.73c18.24,0,33.02,14.78,33.02,33.02,0,16.29-11.78,29.81-27.29,32.52Z"/>
  <path class="cls-1" d="M229.47,70.39c-1.63,.31-3.31,.46-5.03,.46v-.08c1.71,0,3.39-.13,5.03-.38Z"/>
  <path class="cls-1" d="M320.37,70.39c-1.63,.31-3.31,.46-5.03,.46s-3.4-.15-5.03-.46c1.64,.25,3.32,.38,5.03,.38s3.39-.13,5.03-.38Z"/>
  <path class="cls-1" d="M315.34,70.77c-1.71,0-3.39-.13-5.03-.38,1.63,.31,3.31,.46,5.03,.46s3.4-.15,5.03-.46c-1.64,.25-3.32,.38-5.03,.38Z"/>
  <path class="cls-1" d="M348.36,37.74c0,16.29-11.78,29.81-27.29,32.52-.23,.05-.47,.08-.7,.12-1.64,.25-3.32,.38-5.03,.38s-3.39-.13-5.03-.38c-.22-.03-.45-.07-.67-.11-12.85-2.65-22.5-14.01-22.5-27.63,0-15.58,12.62-28.21,28.2-28.21V4.73c18.24,0,33.02,14.78,33.02,33.02Z"/>
  <path class="cls-1" d="M315.34,.12c-23.48,0-42.52,19.03-42.52,42.52s19.04,42.52,42.52,42.52,42.52-19.04,42.52-42.52S338.82,.12,315.34,.12Zm5.73,70.14c-.23,.05-.47,.08-.7,.12-1.63,.31-3.31,.46-5.03,.46s-3.4-.15-5.03-.46c-.22-.03-.45-.07-.67-.11-12.85-2.65-22.5-14.01-22.5-27.63,0-15.58,12.62-28.21,28.2-28.21V4.73c18.24,0,33.02,14.78,33.02,33.02,0,16.29-11.78,29.81-27.29,32.52Z"/>
  <path class="cls-1" d="M320.37,70.39c-1.63,.31-3.31,.46-5.03,.46v-.08c1.71,0,3.39-.13,5.03-.38Z"/>
  <circle class="cls-1" cx="42.64" cy="42.64" r="28.2"/>
  <circle class="cls-1" cx="42.64" cy="42.64" r="42.52"/>
</svg>